<svg xmlns="http://www.w3.org/2000/svg" data-name="Layer 1" width="137.83040938281647" height="281.1695906171834"><rect id="backgroundrect" width="100%" height="100%" x="0" y="0" fill="none" stroke="none" class="selected" style=""/><defs><style>.cls-1{fill:#0a88f0;}.cls-2{fill:#60d9ff;}.cls-3{fill:#2cb1ff;}.cls-4{fill:#3005b4;}.cls-5{fill:#1f18cf;}.cls-6{fill:#055bde;}</style></defs><title>Logo22</title><g class="currentLayer" style=""><title>Layer 1</title><path class="cls-1" d="M383.1,-80.1 " id="svg_1"/><path class="cls-1" d="M358,-80.4 " id="svg_2"/><path class="cls-2" d="M13.9,75.1 a132.88,132.88 0 0 0 -13.4,56 L0,149.7 v35.1 H0 c3.1,0 13.5,-0.4 20.9,-7.2 l2,-43.9 l2.4,-19.2 c2.1,-7.5 2.9,-12.8 5.5,-19.1 l0.1,-0.30000000000000004 c1.3,-3.4 3.1,-6.6 4.7,-9.9 A118.4,118.4 0 0 1 47.8,65.4 c0.1,-0.1 0.1,-0.2 0.2,-0.30000000000000004 c16.5,-20.6 43.4,-39.9 86.7,-41.3 V0 C129.1,0.2 48.6,4.9 13.9,75.1 z" id="svg_3"/><path class="cls-3" d="M134.7,23.8 c-4.3,0.30000000000000004 -53.3,-1.7000000000000002 -86.7,41.4 c-0.1,0.1 -0.1,0.2 -0.2,0.30000000000000004 A131.74,131.74 0 0 0 30.9,95.1 l-0.1,0.30000000000000004 a122.82,122.82 0 0 0 -7.9,38.3 l-2,43.9 s11.5,-3.7 23.7,-28.1 L50,113 s19.9,-51.4 84.8,-65.2 z" id="svg_4"/><path class="cls-1" d="M134.8,47.8 c-2.8,0 -25.7,0.4 -39.6,7.4 C80.9,62.4 68.5,72.4 60.5,86.3 c-8.1,14.2 -12.6,30.5 -14.4,46.7 c-0.8,7.2 -1.4,14.7 -4.6,21.3 A58.69,58.69 0 0 1 24,175.4 c-1,0.7000000000000001 -2.1,1.5 -3.1,2.1 a52.7,52.7 0 0 1 -9.2,4.6 a40.49,40.49 0 0 1 -6.6,1.8 a50.8,50.8 0 0 1 -5.1,0.8 v20.1 c55,10 67.1,-52.9 67.1,-52.9 a141.48,141.48 0 0 1 3,-22.5 c0.1,-0.30000000000000004 0.2,-0.7000000000000001 0.30000000000000004,-1.1 c0.7000000000000001,-3.4 1.7000000000000002,-6.7 2.7,-10 a1.42,1.42 0 0 1 0.2,-0.6000000000000001 C85.6,81 112,73.8 125.9,72.4 c4.5,-0.5 7.8,-0.7000000000000001 8.7,-0.7000000000000001 z" id="svg_5"/><path class="cls-4" d="M113.4,98.8 l-2,43.9 L109,161.9 c-1.7000000000000002,6.1 -2.7,10.7 -4.3,15.6 c-0.4,1.1 -0.7000000000000001,2.3 -1.2,3.5 c0,0 -0.5,1.2 -0.7000000000000001,1.7000000000000002 c-1.2,2.9 -2.7,5.7 -4.1,8.5 a112,112 0 0 1 -12.2,19.5 c-0.1,0.1 -43.4,40.3 -86.5,41.9 v23.8 H0 c8.3,-0.4 86.4,-6.2 120.4,-75 a134.4,134.4 0 0 0 13.4,-56 l0.9,-35.9 h0 V91.6 C132.4,91.5 121.2,91.6 113.4,98.8 z" id="svg_6"/><path class="cls-5" d="M89.7,126.9 l-5.4,36.6 S64.5,214.6 0,228.6 v24.1 c6.4,0.4 53.2,1.5 86.3,-41.4 c0.1,-0.1 0.1,-0.2 0.2,-0.30000000000000004 a130.24,130.24 0 0 0 16.9,-29.7 l0.1,-0.30000000000000004 a122.82,122.82 0 0 0 7.9,-38.3 l2,-43.9 S102,102.5 89.7,126.9 z" id="svg_7"/><path class="cls-6" d="M98.9,80.7 a79.39,79.39 0 0 0 -25.3,27.5 c-6.7,12.3 -6.5,25.4 -9.4,38.7 c-0.1,0.4 -0.2,0.7000000000000001 -0.30000000000000004,1.1 c-0.7000000000000001,3.4 -1.7000000000000002,6.7 -2.7,10 a1.42,1.42 0 0 1 -0.2,0.6000000000000001 c-12.3,36.7 -38.7,44 -52.6,45.4 c-4,0.4 -7.1,0.7000000000000001 -8.4,0.8 v23.9 c4.2,-0.1 25.7,-0.7000000000000001 38.9,-7.4 c14.4,-7.2 26.8,-17.2 34.8,-31.1 c8.1,-14.2 12.6,-30.5 14.4,-46.7 c0.8,-7.2 1.4,-14.7 4.6,-21.3 A59.88,59.88 0 0 1 110.2,101 a33.68,33.68 0 0 1 3.1,-2.1 a52.7,52.7 0 0 1 9.2,-4.6 a51.23,51.23 0 0 1 12.2,-2.7 l-0.1,-23.7 A82.65,82.65 0 0 0 98.9,80.7 z" id="svg_8"/><path class="cls-1" d="M545,98.8 " id="svg_9"/><path class="cls-1" d="M519.8,98.6 " id="svg_10"/><path class="cls-4" d="M232.1,167.8 l1.1,8.2 a80.87,80.87 0 0 1 -22,2.6 c-10.8,0 -18.4,-2.9 -22.8,-8.6 s-6.5,-15.6 -6.5,-29.7 s2.2,-24 6.5,-29.7 s12,-8.6 22.8,-8.6 a88.11,88.11 0 0 1 20.5,2.1 l-1.1,8.3 a187.48,187.48 0 0 0 -19.4,-0.9 c-6.8,0 -11.5,2.1 -14.1,6.2 s-3.9,11.7 -3.9,22.5 s1.3,18.4 3.9,22.5 s7.3,6.2 14.1,6.2 A132.49,132.49 0 0 0 232.1,167.8 z" id="svg_11"/><path class="cls-4" d="M291.5,168.3 l0.4,8.3 q-9.75,0.9 -31.8,0.9 c-4.6,0 -8.2,-1.2 -10.9,-3.6 a12.28,12.28 0 0 1 -4,-9.7 V116.4 a12.28,12.28 0 0 1 4,-9.7 c2.7,-2.4 6.3,-3.6 10.9,-3.6 q22,0 31.8,0.9 l-0.4,8.4 H262 c-2.2,0 -3.7,0.5 -4.6,1.6 s-1.3,2.8 -1.3,5.3 v14.8 h31.2 v8.7 H256.1 v18.9 c0,2.5 0.4,4.3 1.3,5.3 s2.4,1.6 4.6,1.6 z" id="svg_12"/><path class="cls-4" d="M343.2,138.6 v0.4 c5.4,0.5 9.2,2.4 11.4,5.6 s3.4,8 3.4,14.1 c0,7.4 -1.8,12.5 -5.3,15.2 S343,178 334.2,178 q-18.15,0 -27.9,-0.9 V103 c5.8,-0.6000000000000001 14,-0.9 24.7,-0.9 c9.3,0 15.8,1.3 19.4,4 s5.4,7.8 5.4,15.3 c0,5.4 -1,9.4 -3,12.2 S347.5,138.2 343.2,138.6 zm-26.5,-3.8 h15 c5.1,0 8.7,-0.8 10.7,-2.4 s3,-4.7 3,-9.4 s-1.1,-7.6 -3.2,-9.2 s-6.1,-2.3 -11.8,-2.3 H316.8 zm0,34.1 l15.8,0.1 c5.7,0 9.5,-0.8 11.5,-2.4 s3.1,-4.8 3.1,-9.6 c0,-5.4 -1.1,-9 -3.3,-11 s-6.2,-2.9 -12,-3 H316.7 z" id="svg_13"/><path class="cls-4" d="M419.08479529619217,168.3 l0.4,8.3 q-9.75,0.9 -31.8,0.9 q-6.9,0 -10.8,-3.6 a12.28,12.28 0 0 1 -4,-9.7 V116.4 a12.28,12.28 0 0 1 4,-9.7 q4.05,-3.6 10.8,-3.6 q22,0 31.8,0.9 l-0.4,8.4 H389.58479529619217 c-2.1,0 -3.7,0.5 -4.6,1.6 s-1.3,2.8 -1.3,5.3 v14.8 h31.2 v8.7 H383.6847952961922 v18.9 c0,2.5 0.4,4.3 1.3,5.3 s2.4,1.6 4.6,1.6 z" id="svg_14"/><path class="cls-4" d="M433.2,177.3 V103.2 a244.66,244.66 0 0 1 25.9,-1 c9.2,0 15.5,1.6 19,4.9 s5.2,9.4 5.2,18.5 s-1.7000000000000002,15.3 -5,18.6 s-9.3,4.9 -18,4.9 a146.75,146.75 0 0 1 -16.2,-1 v29.2 zM444.1,140 h14.7 c5.2,-0.1 8.8,-1.1 10.7,-3 s2.9,-5.7 2.9,-11.3 s-1,-9.3 -2.9,-11.3 s-5.5,-2.9 -10.7,-2.9 c-7.2,0 -12.1,0 -14.7,0.1 z" id="svg_15"/><path class="cls-4" d="M544.3,167.8 l1.1,8.2 a80.87,80.87 0 0 1 -22,2.6 c-10.8,0 -18.4,-2.9 -22.8,-8.6 s-6.5,-15.6 -6.5,-29.7 s2.2,-24 6.5,-29.7 s12,-8.6 22.8,-8.6 a88.11,88.11 0 0 1 20.5,2.1 l-1.1,8.3 a187.48,187.48 0 0 0 -19.4,-0.9 c-6.8,0 -11.5,2.1 -14.1,6.2 s-3.9,11.7 -3.9,22.5 s1.3,18.4 3.9,22.5 s7.3,6.2 14.1,6.2 A132.49,132.49 0 0 0 544.3,167.8 z" id="svg_16"/><path class="cls-4" d="M609.4,112.7 H585.9 v64.6 H575 V112.7 H551.7 v-9.5 h57.7 z" id="svg_17"/><path class="cls-4" d="M620.9,177.3 V103.2 a244.66,244.66 0 0 1 25.9,-1 c9.2,0 15.5,1.6 19,4.9 s5.2,9.4 5.2,18.5 s-1.7000000000000002,15.3 -5,18.6 s-9.3,4.9 -18,4.9 a146.75,146.75 0 0 1 -16.2,-1 v29.2 zM631.7,140 h14.7 c5.2,-0.1 8.8,-1.1 10.7,-3 s2.9,-5.7 2.9,-11.3 s-1,-9.3 -2.9,-11.3 s-5.5,-2.9 -10.7,-2.9 c-7.2,0 -12.1,0 -14.7,0.1 z" id="svg_18"/><path class="cls-4" d="M711.3,101.8 q16.5,0 23.1,8.4 c4.4,5.6 6.6,15.6 6.5,30.1 s-2.2,24.5 -6.5,30.1 s-12.1,8.4 -23.1,8.4 s-18.6,-2.8 -23,-8.4 s-6.6,-15.6 -6.5,-30.1 s2.2,-24.5 6.5,-30.1 S700.3,101.8 711.3,101.8 zm14.4,15.8 c-2.7,-4.1 -7.5,-6.2 -14.4,-6.2 s-11.7,2.1 -14.3,6.2 s-3.9,11.7 -3.9,22.7 s1.3,18.5 3.9,22.7 s7.4,6.2 14.3,6.2 s11.7,-2.1 14.4,-6.2 s4,-11.7 4,-22.7 s-1.4,-18.6 -4,-22.7 z" id="svg_19"/><path class="cls-4" d="M812.7,177.3 H802.3 V125 a52.08,52.08 0 0 1 0.6000000000000001,-8.8 h-0.6000000000000001 a64,64 0 0 1 -3.9,8.4 l-31.1,52.8 H756.2 V103.3 h10.3 V155 a55,55 0 0 1 -0.7000000000000001,9.1 h0.6000000000000001 a65.82,65.82 0 0 1 4.2,-8.4 l30.9,-52.5 h11.2 zM793.3,82.4 H801 a12.56,12.56 0 0 1 -3.9,10.7 c-3,2.9 -7.1,4.3 -12.3,4.3 s-9.4,-1.4 -12.5,-4.3 a12.35,12.35 0 0 1 -4,-10.7 h7.8 c0,3.1 0.8,5.4 2.3,7 a8.07,8.07 0 0 0 6.4,2.4 c5.7,0 8.5,-3.1 8.5,-9.4 z" id="svg_20"/></g></svg>