<svg id="Layer_1" data-name="Layer 1" xmlns="http://www.w3.org/2000/svg" viewBox="0 0 812.7 276.4"><defs><style>.cls-1{fill:#0a88f0;}.cls-2{fill:#60d9ff;}.cls-3{fill:#2cb1ff;}.cls-4{fill:#3005b4;}.cls-5{fill:#1f18cf;}.cls-6{fill:#055bde;}</style></defs><title>Logo22</title><path class="cls-1" d="M383.1-80.1" transform="translate(0)"/><path class="cls-1" d="M358-80.4" transform="translate(0)"/><path class="cls-2" d="M13.9,75.1a132.88,132.88,0,0,0-13.4,56L0,149.7v35.1H0c3.1,0,13.5-.4,20.9-7.2l2-43.9,2.4-19.2c2.1-7.5,2.9-12.8,5.5-19.1l.1-.3c1.3-3.4,3.1-6.6,4.7-9.9A118.4,118.4,0,0,1,47.8,65.4c.1-.1.1-.2.2-.3,16.5-20.6,43.4-39.9,86.7-41.3V0C129.1.2,48.6,4.9,13.9,75.1Z" transform="translate(0)"/><path class="cls-3" d="M134.7,23.8c-4.3.3-53.3-1.7-86.7,41.4-.1.1-.1.2-.2.3A131.74,131.74,0,0,0,30.9,95.1l-.1.3a122.82,122.82,0,0,0-7.9,38.3l-2,43.9s11.5-3.7,23.7-28.1L50,113s19.9-51.4,84.8-65.2Z" transform="translate(0)"/><path class="cls-1" d="M134.8,47.8c-2.8,0-25.7.4-39.6,7.4C80.9,62.4,68.5,72.4,60.5,86.3c-8.1,14.2-12.6,30.5-14.4,46.7-.8,7.2-1.4,14.7-4.6,21.3A58.69,58.69,0,0,1,24,175.4c-1,.7-2.1,1.5-3.1,2.1a52.7,52.7,0,0,1-9.2,4.6,40.49,40.49,0,0,1-6.6,1.8,50.8,50.8,0,0,1-5.1.8v20.1c55,10,67.1-52.9,67.1-52.9a141.48,141.48,0,0,1,3-22.5c.1-.3.2-.7.3-1.1.7-3.4,1.7-6.7,2.7-10a1.42,1.42,0,0,1,.2-.6C85.6,81,112,73.8,125.9,72.4c4.5-.5,7.8-.7,8.7-.7Z" transform="translate(0)"/><path class="cls-4" d="M113.4,98.8l-2,43.9L109,161.9c-1.7,6.1-2.7,10.7-4.3,15.6-.4,1.1-.7,2.3-1.2,3.5,0,0-.5,1.2-.7,1.7-1.2,2.9-2.7,5.7-4.1,8.5a112,112,0,0,1-12.2,19.5c-.1.1-43.4,40.3-86.5,41.9v23.8H0c8.3-.4,86.4-6.2,120.4-75a134.4,134.4,0,0,0,13.4-56l.9-35.9h0V91.6C132.4,91.5,121.2,91.6,113.4,98.8Z" transform="translate(0)"/><path class="cls-5" d="M89.7,126.9l-5.4,36.6S64.5,214.6,0,228.6v24.1c6.4.4,53.2,1.5,86.3-41.4.1-.1.1-.2.2-.3a130.24,130.24,0,0,0,16.9-29.7l.1-.3a122.82,122.82,0,0,0,7.9-38.3l2-43.9S102,102.5,89.7,126.9Z" transform="translate(0)"/><path class="cls-6" d="M98.9,80.7a79.39,79.39,0,0,0-25.3,27.5c-6.7,12.3-6.5,25.4-9.4,38.7-.1.4-.2.7-.3,1.1-.7,3.4-1.7,6.7-2.7,10a1.42,1.42,0,0,1-.2.6c-12.3,36.7-38.7,44-52.6,45.4-4,.4-7.1.7-8.4.8v23.9c4.2-.1,25.7-.7,38.9-7.4,14.4-7.2,26.8-17.2,34.8-31.1,8.1-14.2,12.6-30.5,14.4-46.7.8-7.2,1.4-14.7,4.6-21.3A59.88,59.88,0,0,1,110.2,101a33.68,33.68,0,0,1,3.1-2.1,52.7,52.7,0,0,1,9.2-4.6,51.23,51.23,0,0,1,12.2-2.7l-.1-23.7A82.65,82.65,0,0,0,98.9,80.7Z" transform="translate(0)"/><path class="cls-1" d="M545,98.8" transform="translate(0)"/><path class="cls-1" d="M519.8,98.6" transform="translate(0)"/><path class="cls-4" d="M232.1,167.8l1.1,8.2a80.87,80.87,0,0,1-22,2.6c-10.8,0-18.4-2.9-22.8-8.6s-6.5-15.6-6.5-29.7,2.2-24,6.5-29.7,12-8.6,22.8-8.6a88.11,88.11,0,0,1,20.5,2.1l-1.1,8.3a187.48,187.48,0,0,0-19.4-.9c-6.8,0-11.5,2.1-14.1,6.2s-3.9,11.7-3.9,22.5,1.3,18.4,3.9,22.5,7.3,6.2,14.1,6.2A132.49,132.49,0,0,0,232.1,167.8Z" transform="translate(0)"/><path class="cls-4" d="M291.5,168.3l.4,8.3q-9.75.9-31.8.9c-4.6,0-8.2-1.2-10.9-3.6a12.28,12.28,0,0,1-4-9.7V116.4a12.28,12.28,0,0,1,4-9.7c2.7-2.4,6.3-3.6,10.9-3.6q22,0,31.8.9l-.4,8.4H262c-2.2,0-3.7.5-4.6,1.6s-1.3,2.8-1.3,5.3v14.8h31.2v8.7H256.1v18.9c0,2.5.4,4.3,1.3,5.3s2.4,1.6,4.6,1.6Z" transform="translate(0)"/><path class="cls-4" d="M343.2,138.6v.4c5.4.5,9.2,2.4,11.4,5.6s3.4,8,3.4,14.1c0,7.4-1.8,12.5-5.3,15.2S343,178,334.2,178q-18.15,0-27.9-.9V103c5.8-.6,14-.9,24.7-.9,9.3,0,15.8,1.3,19.4,4s5.4,7.8,5.4,15.3c0,5.4-1,9.4-3,12.2S347.5,138.2,343.2,138.6Zm-26.5-3.8h15c5.1,0,8.7-.8,10.7-2.4s3-4.7,3-9.4-1.1-7.6-3.2-9.2-6.1-2.3-11.8-2.3H316.8Zm0,34.1,15.8.1c5.7,0,9.5-.8,11.5-2.4s3.1-4.8,3.1-9.6c0-5.4-1.1-9-3.3-11s-6.2-2.9-12-3H316.7Z" transform="translate(0)"/><path class="cls-4" d="M418.5,168.3l.4,8.3q-9.75.9-31.8.9-6.9,0-10.8-3.6a12.28,12.28,0,0,1-4-9.7V116.4a12.28,12.28,0,0,1,4-9.7q4.05-3.6,10.8-3.6,22,0,31.8.9l-.4,8.4H389c-2.1,0-3.7.5-4.6,1.6s-1.3,2.8-1.3,5.3v14.8h31.2v8.7H383.1v18.9c0,2.5.4,4.3,1.3,5.3s2.4,1.6,4.6,1.6Z" transform="translate(0)"/><path class="cls-4" d="M433.2,177.3V103.2a244.66,244.66,0,0,1,25.9-1c9.2,0,15.5,1.6,19,4.9s5.2,9.4,5.2,18.5-1.7,15.3-5,18.6-9.3,4.9-18,4.9a146.75,146.75,0,0,1-16.2-1v29.2ZM444.1,140h14.7c5.2-.1,8.8-1.1,10.7-3s2.9-5.7,2.9-11.3-1-9.3-2.9-11.3-5.5-2.9-10.7-2.9c-7.2,0-12.1,0-14.7.1Z" transform="translate(0)"/><path class="cls-4" d="M544.3,167.8l1.1,8.2a80.87,80.87,0,0,1-22,2.6c-10.8,0-18.4-2.9-22.8-8.6s-6.5-15.6-6.5-29.7,2.2-24,6.5-29.7,12-8.6,22.8-8.6a88.11,88.11,0,0,1,20.5,2.1l-1.1,8.3a187.48,187.48,0,0,0-19.4-.9c-6.8,0-11.5,2.1-14.1,6.2s-3.9,11.7-3.9,22.5,1.3,18.4,3.9,22.5,7.3,6.2,14.1,6.2A132.49,132.49,0,0,0,544.3,167.8Z" transform="translate(0)"/><path class="cls-4" d="M609.4,112.7H585.9v64.6H575V112.7H551.7v-9.5h57.7Z" transform="translate(0)"/><path class="cls-4" d="M620.9,177.3V103.2a244.66,244.66,0,0,1,25.9-1c9.2,0,15.5,1.6,19,4.9s5.2,9.4,5.2,18.5-1.7,15.3-5,18.6-9.3,4.9-18,4.9a146.75,146.75,0,0,1-16.2-1v29.2ZM631.7,140h14.7c5.2-.1,8.8-1.1,10.7-3s2.9-5.7,2.9-11.3-1-9.3-2.9-11.3-5.5-2.9-10.7-2.9c-7.2,0-12.1,0-14.7.1Z" transform="translate(0)"/><path class="cls-4" d="M711.3,101.8q16.5,0,23.1,8.4c4.4,5.6,6.6,15.6,6.5,30.1s-2.2,24.5-6.5,30.1-12.1,8.4-23.1,8.4-18.6-2.8-23-8.4-6.6-15.6-6.5-30.1,2.2-24.5,6.5-30.1S700.3,101.8,711.3,101.8Zm14.4,15.8c-2.7-4.1-7.5-6.2-14.4-6.2s-11.7,2.1-14.3,6.2-3.9,11.7-3.9,22.7,1.3,18.5,3.9,22.7,7.4,6.2,14.3,6.2,11.7-2.1,14.4-6.2,4-11.7,4-22.7-1.4-18.6-4-22.7Z" transform="translate(0)"/><path class="cls-4" d="M812.7,177.3H802.3V125a52.08,52.08,0,0,1,.6-8.8h-.6a64,64,0,0,1-3.9,8.4l-31.1,52.8H756.2V103.3h10.3V155a55,55,0,0,1-.7,9.1h.6a65.82,65.82,0,0,1,4.2-8.4l30.9-52.5h11.2ZM793.3,82.4H801a12.56,12.56,0,0,1-3.9,10.7c-3,2.9-7.1,4.3-12.3,4.3s-9.4-1.4-12.5-4.3a12.35,12.35,0,0,1-4-10.7h7.8c0,3.1.8,5.4,2.3,7a8.07,8.07,0,0,0,6.4,2.4c5.7,0,8.5-3.1,8.5-9.4Z" transform="translate(0)"/></svg>